<?xml version="1.0" encoding="UTF-8"?>
<svg xmlns="http://www.w3.org/2000/svg" xmlns:xlink="http://www.w3.org/1999/xlink" width="599pt" height="599pt" viewBox="0 0 599 599" version="1.1">
<defs>
<g>
<symbol overflow="visible" id="glyph0-0">
<path style="stroke:none;" d="M 1.5 0 L 1.5 -7.5 L 7.5 -7.5 L 7.5 0 Z M 1.6875 -0.1875 L 7.3125 -0.1875 L 7.3125 -7.3125 L 1.6875 -7.3125 Z M 1.6875 -0.1875 "/>
</symbol>
<symbol overflow="visible" id="glyph0-1">
<path style="stroke:none;" d="M -0.242188 0 L 4.628906 -8.589844 L 5.984375 -8.589844 L 7.398438 0 L 6.289063 0 L 5.871094 -2.472656 L 2.398438 -2.472656 L 1.019531 0 Z M 2.890625 -3.359375 L 5.730469 -3.359375 L 5.398438 -5.515625 C 5.265625 -6.367188 5.1875 -7.082031 5.15625 -7.652344 C 4.960938 -7.160156 4.675781 -6.574219 4.300781 -5.898438 Z M 2.890625 -3.359375 "/>
</symbol>
<symbol overflow="visible" id="glyph0-2">
<path style="stroke:none;" d="M 2.875 -0.859375 L 2.703125 0.0078125 C 2.445313 0.0703125 2.199219 0.105469 1.960938 0.105469 C 1.535156 0.105469 1.199219 0.00390625 0.953125 -0.203125 C 0.761719 -0.355469 0.667969 -0.570313 0.671875 -0.84375 C 0.667969 -0.976563 0.71875 -1.289063 0.828125 -1.789063 L 1.582031 -5.402344 L 0.742188 -5.402344 L 0.914063 -6.222656 L 1.75 -6.222656 L 2.074219 -7.75 L 3.289063 -8.484375 L 2.8125 -6.222656 L 3.855469 -6.222656 L 3.679688 -5.402344 L 2.640625 -5.402344 L 1.921875 -1.960938 C 1.832031 -1.519531 1.785156 -1.257813 1.789063 -1.179688 C 1.785156 -1.050781 1.820313 -0.957031 1.894531 -0.890625 C 1.964844 -0.820313 2.085938 -0.785156 2.25 -0.789063 C 2.484375 -0.785156 2.691406 -0.808594 2.875 -0.859375 Z M 2.875 -0.859375 "/>
</symbol>
<symbol overflow="visible" id="glyph0-3">
<path style="stroke:none;" d="M 0.316406 0 L 2.109375 -8.589844 L 3.171875 -8.589844 L 1.375 0 Z M 0.316406 0 "/>
</symbol>
<symbol overflow="visible" id="glyph0-4">
<path style="stroke:none;" d="M 7.234375 -3.023438 L 8.375 -2.867188 C 8.011719 -1.867188 7.488281 -1.117188 6.804688 -0.613281 C 6.113281 -0.105469 5.34375 0.144531 4.488281 0.148438 C 3.441406 0.144531 2.613281 -0.171875 2.003906 -0.808594 C 1.394531 -1.445313 1.089844 -2.355469 1.089844 -3.546875 C 1.089844 -5.089844 1.554688 -6.371094 2.484375 -7.382813 C 3.3125 -8.28125 4.339844 -8.730469 5.570313 -8.734375 C 6.480469 -8.730469 7.21875 -8.488281 7.785156 -8.003906 C 8.347656 -7.515625 8.675781 -6.859375 8.765625 -6.035156 L 7.695313 -5.9375 C 7.578125 -6.554688 7.34375 -7.019531 6.992188 -7.328125 C 6.632813 -7.632813 6.179688 -7.785156 5.625 -7.789063 C 4.570313 -7.785156 3.71875 -7.320313 3.078125 -6.386719 C 2.511719 -5.582031 2.230469 -4.625 2.234375 -3.523438 C 2.230469 -2.632813 2.449219 -1.960938 2.882813 -1.5 C 3.3125 -1.035156 3.875 -0.800781 4.578125 -0.804688 C 5.167969 -0.800781 5.707031 -0.996094 6.1875 -1.382813 C 6.664063 -1.765625 7.011719 -2.3125 7.234375 -3.023438 Z M 7.234375 -3.023438 "/>
</symbol>
<symbol overflow="visible" id="glyph0-5">
<path style="stroke:none;" d="M 4.59375 -0.773438 C 4.226563 -0.453125 3.871094 -0.21875 3.53125 -0.078125 C 3.191406 0.0703125 2.828125 0.140625 2.445313 0.140625 C 1.867188 0.140625 1.40625 -0.0273438 1.054688 -0.367188 C 0.703125 -0.703125 0.527344 -1.136719 0.527344 -1.664063 C 0.527344 -2.011719 0.605469 -2.316406 0.761719 -2.585938 C 0.917969 -2.851563 1.128906 -3.066406 1.394531 -3.230469 C 1.65625 -3.390625 1.976563 -3.507813 2.355469 -3.578125 C 2.589844 -3.621094 3.039063 -3.660156 3.710938 -3.691406 C 4.375 -3.71875 4.855469 -3.789063 5.144531 -3.902344 C 5.222656 -4.191406 5.261719 -4.429688 5.265625 -4.625 C 5.261719 -4.867188 5.171875 -5.0625 5 -5.203125 C 4.75 -5.398438 4.390625 -5.496094 3.921875 -5.496094 C 3.46875 -5.496094 3.105469 -5.394531 2.824219 -5.199219 C 2.542969 -5 2.335938 -4.722656 2.210938 -4.359375 L 1.136719 -4.453125 C 1.355469 -5.070313 1.699219 -5.542969 2.175781 -5.871094 C 2.648438 -6.199219 3.25 -6.363281 3.972656 -6.363281 C 4.738281 -6.363281 5.347656 -6.179688 5.800781 -5.8125 C 6.144531 -5.539063 6.316406 -5.183594 6.316406 -4.746094 C 6.316406 -4.414063 6.265625 -4.027344 6.171875 -3.59375 L 5.824219 -2.046875 C 5.714844 -1.546875 5.660156 -1.148438 5.660156 -0.84375 C 5.660156 -0.648438 5.703125 -0.367188 5.789063 0 L 4.71875 0 C 4.65625 -0.203125 4.617188 -0.460938 4.59375 -0.773438 Z M 4.984375 -3.152344 C 4.835938 -3.089844 4.675781 -3.042969 4.507813 -3.015625 C 4.335938 -2.980469 4.054688 -2.949219 3.65625 -2.917969 C 3.039063 -2.863281 2.601563 -2.792969 2.347656 -2.710938 C 2.09375 -2.625 1.902344 -2.492188 1.773438 -2.308594 C 1.644531 -2.121094 1.582031 -1.917969 1.582031 -1.699219 C 1.582031 -1.402344 1.683594 -1.15625 1.886719 -0.964844 C 2.089844 -0.773438 2.382813 -0.679688 2.765625 -0.679688 C 3.117188 -0.679688 3.453125 -0.769531 3.777344 -0.957031 C 4.101563 -1.136719 4.359375 -1.398438 4.546875 -1.734375 C 4.734375 -2.066406 4.878906 -2.539063 4.984375 -3.152344 Z M 4.984375 -3.152344 "/>
</symbol>
<symbol overflow="visible" id="glyph0-6">
<path style="stroke:none;" d="M 0.5 -2.125 L 1.558594 -2.191406 C 1.558594 -1.886719 1.605469 -1.625 1.699219 -1.410156 C 1.792969 -1.195313 1.964844 -1.019531 2.214844 -0.882813 C 2.464844 -0.746094 2.757813 -0.679688 3.101563 -0.679688 C 3.566406 -0.679688 3.917969 -0.773438 4.15625 -0.960938 C 4.386719 -1.148438 4.503906 -1.367188 4.507813 -1.625 C 4.503906 -1.804688 4.433594 -1.980469 4.296875 -2.144531 C 4.148438 -2.308594 3.796875 -2.507813 3.238281 -2.75 C 2.675781 -2.984375 2.316406 -3.15625 2.164063 -3.257813 C 1.898438 -3.417969 1.703125 -3.605469 1.570313 -3.824219 C 1.4375 -4.039063 1.371094 -4.289063 1.371094 -4.570313 C 1.371094 -5.0625 1.566406 -5.484375 1.957031 -5.835938 C 2.347656 -6.1875 2.894531 -6.363281 3.597656 -6.363281 C 4.378906 -6.363281 4.972656 -6.179688 5.378906 -5.820313 C 5.785156 -5.457031 5.996094 -4.984375 6.015625 -4.394531 L 4.980469 -4.324219 C 4.964844 -4.699219 4.832031 -4.996094 4.582031 -5.214844 C 4.332031 -5.433594 3.976563 -5.542969 3.523438 -5.542969 C 3.148438 -5.542969 2.863281 -5.457031 2.664063 -5.289063 C 2.457031 -5.121094 2.355469 -4.941406 2.359375 -4.746094 C 2.355469 -4.550781 2.445313 -4.378906 2.625 -4.230469 C 2.742188 -4.128906 3.042969 -3.972656 3.53125 -3.761719 C 4.339844 -3.410156 4.851563 -3.132813 5.070313 -2.929688 C 5.398438 -2.605469 5.566406 -2.210938 5.570313 -1.746094 C 5.566406 -1.433594 5.472656 -1.128906 5.285156 -0.835938 C 5.097656 -0.535156 4.808594 -0.296875 4.417969 -0.125 C 4.027344 0.0546875 3.570313 0.140625 3.046875 0.140625 C 2.328125 0.140625 1.714844 -0.0351563 1.210938 -0.390625 C 0.707031 -0.746094 0.46875 -1.324219 0.5 -2.125 Z M 0.5 -2.125 "/>
</symbol>
<symbol overflow="visible" id="glyph0-7">
<path style="stroke:none;" d="M 2.726563 0 L 4.3125 -7.609375 L 1.492188 -7.609375 L 1.699219 -8.589844 L 8.460938 -8.589844 L 8.257813 -7.609375 L 5.460938 -7.609375 L 3.875 0 Z M 2.726563 0 "/>
</symbol>
<symbol overflow="visible" id="glyph0-8">
<path style="stroke:none;" d="M 0.339844 0.5625 L 1.414063 0.664063 C 1.398438 0.898438 1.429688 1.082031 1.5 1.207031 C 1.566406 1.328125 1.671875 1.421875 1.816406 1.488281 C 2.003906 1.574219 2.25 1.617188 2.5625 1.617188 C 3.199219 1.617188 3.660156 1.449219 3.945313 1.117188 C 4.125 0.894531 4.296875 0.414063 4.453125 -0.335938 L 4.558594 -0.835938 C 4.007813 -0.277344 3.421875 0 2.800781 0 C 2.171875 0 1.644531 -0.230469 1.222656 -0.695313 C 0.796875 -1.15625 0.585938 -1.8125 0.585938 -2.660156 C 0.585938 -3.359375 0.75 -4 1.085938 -4.589844 C 1.414063 -5.171875 1.8125 -5.613281 2.277344 -5.914063 C 2.734375 -6.210938 3.210938 -6.363281 3.703125 -6.363281 C 4.519531 -6.363281 5.148438 -5.976563 5.589844 -5.203125 L 5.800781 -6.222656 L 6.773438 -6.222656 L 5.519531 -0.21875 C 5.378906 0.445313 5.199219 0.957031 4.980469 1.328125 C 4.757813 1.695313 4.445313 1.980469 4.050781 2.1875 C 3.652344 2.386719 3.195313 2.488281 2.679688 2.492188 C 2.175781 2.488281 1.746094 2.425781 1.386719 2.296875 C 1.023438 2.164063 0.753906 1.972656 0.578125 1.730469 C 0.398438 1.480469 0.308594 1.199219 0.3125 0.878906 C 0.308594 0.78125 0.320313 0.675781 0.339844 0.5625 Z M 1.664063 -2.753906 C 1.664063 -2.328125 1.703125 -2.007813 1.789063 -1.792969 C 1.898438 -1.492188 2.066406 -1.261719 2.285156 -1.105469 C 2.503906 -0.945313 2.746094 -0.867188 3.011719 -0.867188 C 3.355469 -0.867188 3.699219 -0.988281 4.046875 -1.234375 C 4.386719 -1.476563 4.664063 -1.855469 4.882813 -2.367188 C 5.09375 -2.875 5.203125 -3.363281 5.203125 -3.832031 C 5.203125 -4.34375 5.058594 -4.75 4.777344 -5.054688 C 4.488281 -5.355469 4.140625 -5.507813 3.726563 -5.507813 C 3.46875 -5.507813 3.21875 -5.4375 2.976563 -5.300781 C 2.734375 -5.160156 2.507813 -4.949219 2.296875 -4.667969 C 2.085938 -4.382813 1.925781 -4.042969 1.824219 -3.648438 C 1.714844 -3.253906 1.664063 -2.957031 1.664063 -2.753906 Z M 1.664063 -2.753906 "/>
</symbol>
<symbol overflow="visible" id="glyph0-9">
<path style="stroke:none;" d="M 0.539063 0 L 2.335938 -8.589844 L 8.539063 -8.589844 L 8.332031 -7.609375 L 3.28125 -7.609375 L 2.71875 -4.9375 L 7.640625 -4.9375 L 7.4375 -3.960938 L 2.515625 -3.960938 L 1.890625 -0.972656 L 7.300781 -0.972656 L 7.09375 0 Z M 0.539063 0 "/>
</symbol>
<symbol overflow="visible" id="glyph0-10">
<path style="stroke:none;" d="M 4.695313 -2.265625 L 5.753906 -2.15625 C 5.488281 -1.378906 5.109375 -0.800781 4.617188 -0.425781 C 4.125 -0.046875 3.566406 0.140625 2.945313 0.140625 C 2.269531 0.140625 1.722656 -0.078125 1.300781 -0.515625 C 0.878906 -0.953125 0.667969 -1.5625 0.671875 -2.351563 C 0.667969 -3.023438 0.804688 -3.691406 1.078125 -4.351563 C 1.347656 -5.003906 1.730469 -5.503906 2.234375 -5.847656 C 2.734375 -6.191406 3.308594 -6.363281 3.953125 -6.363281 C 4.621094 -6.363281 5.152344 -6.171875 5.542969 -5.796875 C 5.933594 -5.417969 6.128906 -4.921875 6.128906 -4.300781 L 5.085938 -4.230469 C 5.078125 -4.621094 4.960938 -4.929688 4.742188 -5.15625 C 4.515625 -5.378906 4.222656 -5.488281 3.855469 -5.492188 C 3.429688 -5.488281 3.058594 -5.355469 2.75 -5.085938 C 2.433594 -4.8125 2.1875 -4.402344 2.011719 -3.855469 C 1.832031 -3.308594 1.746094 -2.78125 1.746094 -2.273438 C 1.746094 -1.742188 1.863281 -1.34375 2.097656 -1.078125 C 2.332031 -0.8125 2.621094 -0.679688 2.964844 -0.679688 C 3.308594 -0.679688 3.636719 -0.808594 3.949219 -1.070313 C 4.261719 -1.332031 4.507813 -1.730469 4.695313 -2.265625 Z M 4.695313 -2.265625 "/>
</symbol>
<symbol overflow="visible" id="glyph0-11">
<path style="stroke:none;" d="M 0.527344 0 L 2.320313 -8.589844 L 3.734375 -8.589844 L 4.601563 -3.023438 C 4.710938 -2.292969 4.785156 -1.589844 4.820313 -0.921875 C 5.058594 -1.496094 5.457031 -2.28125 6.015625 -3.269531 L 9.03125 -8.589844 L 10.464844 -8.589844 L 8.671875 0 L 7.539063 0 L 8.4375 -4.179688 C 8.644531 -5.140625 8.941406 -6.222656 9.328125 -7.421875 C 9.082031 -6.863281 8.777344 -6.261719 8.414063 -5.617188 L 5.214844 0 L 4.109375 0 L 3.246094 -5.507813 C 3.167969 -6.011719 3.109375 -6.597656 3.078125 -7.273438 C 2.976563 -6.515625 2.882813 -5.917969 2.789063 -5.476563 L 1.648438 0 Z M 0.527344 0 "/>
</symbol>
<symbol overflow="visible" id="glyph0-12">
<path style="stroke:none;" d="M 0.390625 0 L 1.695313 -6.222656 L 2.753906 -6.222656 L 2.539063 -5.195313 C 2.929688 -5.636719 3.28125 -5.941406 3.59375 -6.109375 C 3.902344 -6.277344 4.242188 -6.363281 4.605469 -6.363281 C 4.992188 -6.363281 5.3125 -6.257813 5.574219 -6.054688 C 5.832031 -5.847656 6.003906 -5.5625 6.085938 -5.195313 C 6.402344 -5.582031 6.734375 -5.875 7.085938 -6.070313 C 7.429688 -6.265625 7.800781 -6.363281 8.191406 -6.363281 C 8.707031 -6.363281 9.09375 -6.238281 9.359375 -5.992188 C 9.617188 -5.746094 9.75 -5.402344 9.75 -4.957031 C 9.75 -4.765625 9.703125 -4.449219 9.617188 -4.007813 L 8.777344 0 L 7.71875 0 L 8.570313 -4.113281 C 8.644531 -4.449219 8.683594 -4.6875 8.683594 -4.835938 C 8.683594 -5.035156 8.617188 -5.195313 8.488281 -5.316406 C 8.359375 -5.429688 8.179688 -5.488281 7.945313 -5.492188 C 7.625 -5.488281 7.300781 -5.394531 6.976563 -5.203125 C 6.644531 -5.007813 6.390625 -4.753906 6.210938 -4.449219 C 6.03125 -4.136719 5.871094 -3.660156 5.734375 -3.015625 L 5.101563 0 L 4.042969 0 L 4.921875 -4.203125 C 4.984375 -4.484375 5.015625 -4.6875 5.015625 -4.8125 C 5.015625 -5.011719 4.949219 -5.175781 4.824219 -5.304688 C 4.691406 -5.425781 4.527344 -5.488281 4.328125 -5.492188 C 4.027344 -5.488281 3.710938 -5.394531 3.382813 -5.203125 C 3.050781 -5.007813 2.785156 -4.738281 2.578125 -4.402344 C 2.367188 -4.058594 2.195313 -3.574219 2.070313 -2.941406 L 1.453125 0 Z M 0.390625 0 "/>
</symbol>
<symbol overflow="visible" id="glyph0-13">
<path style="stroke:none;" d="M 0.523438 0 L 2.320313 -8.589844 L 4.980469 -8.589844 C 5.464844 -8.589844 5.824219 -8.570313 6.058594 -8.53125 C 6.441406 -8.460938 6.761719 -8.34375 7.027344 -8.179688 C 7.285156 -8.015625 7.492188 -7.789063 7.640625 -7.5 C 7.785156 -7.210938 7.855469 -6.894531 7.859375 -6.550781 C 7.855469 -6.078125 7.726563 -5.660156 7.46875 -5.304688 C 7.207031 -4.941406 6.808594 -4.667969 6.273438 -4.484375 C 6.738281 -4.328125 7.085938 -4.097656 7.316406 -3.792969 C 7.546875 -3.484375 7.664063 -3.128906 7.664063 -2.71875 C 7.664063 -2.242188 7.527344 -1.789063 7.257813 -1.359375 C 6.984375 -0.925781 6.625 -0.589844 6.179688 -0.355469 C 5.730469 -0.117188 5.230469 0 4.679688 0 Z M 2.703125 -4.921875 L 4.441406 -4.921875 C 5.269531 -4.921875 5.867188 -5.054688 6.234375 -5.320313 C 6.601563 -5.585938 6.785156 -5.972656 6.785156 -6.480469 C 6.785156 -6.722656 6.726563 -6.929688 6.613281 -7.105469 C 6.5 -7.28125 6.347656 -7.410156 6.160156 -7.488281 C 5.964844 -7.566406 5.609375 -7.605469 5.09375 -7.609375 L 3.265625 -7.609375 Z M 1.875 -0.972656 L 3.832031 -0.972656 C 4.347656 -0.972656 4.695313 -0.988281 4.882813 -1.023438 C 5.242188 -1.082031 5.539063 -1.1875 5.765625 -1.34375 C 5.992188 -1.492188 6.167969 -1.691406 6.296875 -1.9375 C 6.425781 -2.183594 6.492188 -2.441406 6.492188 -2.710938 C 6.492188 -3.113281 6.363281 -3.417969 6.113281 -3.628906 C 5.855469 -3.835938 5.378906 -3.941406 4.675781 -3.945313 L 2.496094 -3.945313 Z M 1.875 -0.972656 "/>
</symbol>
<symbol overflow="visible" id="glyph0-14">
<path style="stroke:none;" d="M 1.96875 0 L 0.949219 -6.222656 L 1.980469 -6.222656 L 2.515625 -2.796875 C 2.570313 -2.417969 2.644531 -1.808594 2.730469 -0.960938 C 2.933594 -1.402344 3.191406 -1.90625 3.507813 -2.476563 L 5.589844 -6.222656 L 6.710938 -6.222656 L 3.148438 0 Z M 1.96875 0 "/>
</symbol>
<symbol overflow="visible" id="glyph0-15">
<path style="stroke:none;" d="M 0.480469 0 L 2.273438 -8.589844 L 3.421875 -8.589844 L 1.835938 -0.972656 L 6.292969 -0.972656 L 6.085938 0 Z M 0.480469 0 "/>
</symbol>
<symbol overflow="visible" id="glyph0-16">
<path style="stroke:none;" d="M 0.398438 0 L 1.699219 -6.222656 L 2.636719 -6.222656 L 2.375 -4.953125 C 2.6875 -5.429688 3 -5.785156 3.3125 -6.015625 C 3.617188 -6.246094 3.933594 -6.363281 4.253906 -6.363281 C 4.464844 -6.363281 4.722656 -6.285156 5.03125 -6.132813 L 4.601563 -5.148438 C 4.414063 -5.28125 4.214844 -5.347656 3.996094 -5.351563 C 3.621094 -5.347656 3.238281 -5.140625 2.851563 -4.730469 C 2.457031 -4.3125 2.152344 -3.570313 1.933594 -2.496094 L 1.40625 0 Z M 0.398438 0 "/>
</symbol>
<symbol overflow="visible" id="glyph0-17">
<path style="stroke:none;" d="M 0.53125 0 L 2.328125 -8.589844 L 4.914063 -8.589844 C 5.535156 -8.589844 6.011719 -8.542969 6.339844 -8.453125 C 6.808594 -8.332031 7.207031 -8.117188 7.539063 -7.808594 C 7.871094 -7.496094 8.121094 -7.109375 8.289063 -6.644531 C 8.457031 -6.175781 8.542969 -5.652344 8.542969 -5.078125 C 8.542969 -4.386719 8.4375 -3.757813 8.226563 -3.1875 C 8.015625 -2.617188 7.742188 -2.117188 7.40625 -1.6875 C 7.070313 -1.257813 6.714844 -0.917969 6.347656 -0.675781 C 5.976563 -0.429688 5.542969 -0.25 5.039063 -0.132813 C 4.65625 -0.0429688 4.183594 0 3.625 0 Z M 1.886719 -0.972656 L 3.246094 -0.972656 C 3.855469 -0.972656 4.398438 -1.027344 4.882813 -1.140625 C 5.175781 -1.210938 5.429688 -1.316406 5.640625 -1.453125 C 5.917969 -1.628906 6.171875 -1.859375 6.398438 -2.148438 C 6.695313 -2.53125 6.929688 -2.96875 7.109375 -3.460938 C 7.28125 -3.949219 7.371094 -4.507813 7.375 -5.132813 C 7.371094 -5.828125 7.25 -6.359375 7.011719 -6.734375 C 6.765625 -7.105469 6.457031 -7.355469 6.085938 -7.476563 C 5.808594 -7.5625 5.378906 -7.605469 4.792969 -7.609375 L 3.273438 -7.609375 Z M 1.886719 -0.972656 "/>
</symbol>
<symbol overflow="visible" id="glyph0-18">
<path style="stroke:none;" d="M 1.90625 -7.390625 L 2.15625 -8.589844 L 3.210938 -8.589844 L 2.960938 -7.390625 Z M 0.359375 0 L 1.65625 -6.222656 L 2.71875 -6.222656 L 1.417969 0 Z M 0.359375 0 "/>
</symbol>
<symbol overflow="visible" id="glyph0-19">
<path style="stroke:none;" d="M 0.398438 0 L 1.699219 -6.222656 L 2.660156 -6.222656 L 2.429688 -5.140625 C 2.847656 -5.5625 3.238281 -5.875 3.601563 -6.070313 C 3.964844 -6.265625 4.335938 -6.363281 4.71875 -6.363281 C 5.21875 -6.363281 5.613281 -6.226563 5.902344 -5.953125 C 6.1875 -5.679688 6.332031 -5.3125 6.335938 -4.859375 C 6.332031 -4.625 6.28125 -4.261719 6.179688 -3.765625 L 5.390625 0 L 4.328125 0 L 5.15625 -3.945313 C 5.238281 -4.320313 5.277344 -4.605469 5.28125 -4.792969 C 5.277344 -4.996094 5.207031 -5.164063 5.066406 -5.296875 C 4.921875 -5.425781 4.714844 -5.488281 4.445313 -5.492188 C 3.902344 -5.488281 3.417969 -5.292969 2.996094 -4.90625 C 2.566406 -4.511719 2.257813 -3.84375 2.0625 -2.894531 L 1.460938 0 Z M 0.398438 0 "/>
</symbol>
<symbol overflow="visible" id="glyph0-20">
<path style="stroke:none;" d="M 0.84375 -2.777344 L 1.96875 -2.882813 L 1.957031 -2.585938 C 1.957031 -2.25 2.03125 -1.945313 2.183594 -1.671875 C 2.335938 -1.390625 2.589844 -1.179688 2.941406 -1.03125 C 3.292969 -0.882813 3.710938 -0.808594 4.195313 -0.808594 C 4.882813 -0.808594 5.40625 -0.957031 5.769531 -1.257813 C 6.128906 -1.558594 6.308594 -1.902344 6.3125 -2.289063 C 6.308594 -2.558594 6.214844 -2.804688 6.023438 -3.03125 C 5.828125 -3.246094 5.292969 -3.542969 4.421875 -3.921875 C 3.746094 -4.210938 3.285156 -4.4375 3.039063 -4.59375 C 2.652344 -4.847656 2.367188 -5.121094 2.183594 -5.421875 C 2 -5.71875 1.910156 -6.0625 1.910156 -6.445313 C 1.910156 -6.886719 2.03125 -7.285156 2.273438 -7.640625 C 2.515625 -7.992188 2.867188 -8.261719 3.335938 -8.453125 C 3.800781 -8.636719 4.328125 -8.730469 4.914063 -8.734375 C 5.613281 -8.730469 6.203125 -8.613281 6.683594 -8.382813 C 7.164063 -8.144531 7.511719 -7.832031 7.730469 -7.445313 C 7.941406 -7.050781 8.050781 -6.679688 8.054688 -6.328125 C 8.050781 -6.289063 8.050781 -6.230469 8.050781 -6.152344 L 6.945313 -6.0625 C 6.941406 -6.304688 6.921875 -6.496094 6.878906 -6.632813 C 6.800781 -6.871094 6.679688 -7.070313 6.515625 -7.238281 C 6.351563 -7.398438 6.125 -7.53125 5.835938 -7.632813 C 5.546875 -7.730469 5.226563 -7.78125 4.875 -7.78125 C 4.25 -7.78125 3.761719 -7.640625 3.414063 -7.359375 C 3.144531 -7.144531 3.011719 -6.859375 3.015625 -6.503906 C 3.011719 -6.292969 3.066406 -6.101563 3.179688 -5.9375 C 3.285156 -5.765625 3.484375 -5.605469 3.773438 -5.449219 C 3.976563 -5.335938 4.457031 -5.109375 5.21875 -4.773438 C 5.835938 -4.5 6.261719 -4.285156 6.5 -4.132813 C 6.808594 -3.921875 7.050781 -3.671875 7.21875 -3.378906 C 7.382813 -3.082031 7.464844 -2.746094 7.46875 -2.375 C 7.464844 -1.90625 7.324219 -1.476563 7.042969 -1.085938 C 6.761719 -0.691406 6.371094 -0.390625 5.871094 -0.175781 C 5.371094 0.0390625 4.796875 0.144531 4.15625 0.148438 C 3.179688 0.144531 2.386719 -0.0625 1.773438 -0.488281 C 1.15625 -0.910156 0.847656 -1.675781 0.84375 -2.777344 Z M 0.84375 -2.777344 "/>
</symbol>
<symbol overflow="visible" id="glyph0-21">
<path style="stroke:none;" d="M 0.503906 0 L 2.304688 -8.589844 L 3.445313 -8.589844 L 2.703125 -5.023438 L 7.15625 -5.023438 L 7.898438 -8.589844 L 9.046875 -8.589844 L 7.253906 0 L 6.105469 0 L 6.949219 -4.046875 L 2.5 -4.046875 L 1.652344 0 Z M 0.503906 0 "/>
</symbol>
<symbol overflow="visible" id="glyph0-22">
<path style="stroke:none;" d="M 0.585938 -2.359375 C 0.585938 -3.574219 0.941406 -4.582031 1.65625 -5.378906 C 2.246094 -6.035156 3.019531 -6.363281 3.976563 -6.363281 C 4.722656 -6.363281 5.328125 -6.128906 5.789063 -5.660156 C 6.25 -5.191406 6.480469 -4.558594 6.480469 -3.761719 C 6.480469 -3.042969 6.335938 -2.375 6.046875 -1.765625 C 5.757813 -1.148438 5.34375 -0.679688 4.8125 -0.351563 C 4.277344 -0.0234375 3.71875 0.140625 3.128906 0.140625 C 2.644531 0.140625 2.203125 0.0390625 1.804688 -0.167969 C 1.40625 -0.375 1.101563 -0.667969 0.898438 -1.046875 C 0.6875 -1.425781 0.585938 -1.863281 0.585938 -2.359375 Z M 1.648438 -2.46875 C 1.644531 -1.875 1.785156 -1.429688 2.070313 -1.132813 C 2.347656 -0.828125 2.707031 -0.679688 3.140625 -0.679688 C 3.367188 -0.679688 3.589844 -0.722656 3.8125 -0.816406 C 4.035156 -0.902344 4.242188 -1.042969 4.433594 -1.234375 C 4.625 -1.417969 4.789063 -1.632813 4.921875 -1.875 C 5.054688 -2.117188 5.164063 -2.375 5.25 -2.65625 C 5.367188 -3.039063 5.425781 -3.410156 5.429688 -3.765625 C 5.425781 -4.324219 5.285156 -4.761719 5.003906 -5.074219 C 4.722656 -5.386719 4.367188 -5.542969 3.9375 -5.542969 C 3.601563 -5.542969 3.296875 -5.460938 3.027344 -5.304688 C 2.75 -5.144531 2.503906 -4.914063 2.285156 -4.613281 C 2.066406 -4.304688 1.902344 -3.949219 1.800781 -3.546875 C 1.695313 -3.140625 1.644531 -2.78125 1.648438 -2.46875 Z M 1.648438 -2.46875 "/>
</symbol>
<symbol overflow="visible" id="glyph0-23">
<path style="stroke:none;" d="M 0.6875 0 L 2.484375 -8.589844 L 3.625 -8.589844 L 1.835938 0 Z M 0.6875 0 "/>
</symbol>
</g>
</defs>
<g id="surface6">
<rect x="0" y="0" width="599" height="599" style="fill:rgb(100%,100%,100%);fill-opacity:1;stroke:none;"/>
<path style="fill:none;stroke-width:0.75;stroke-linecap:round;stroke-linejoin:round;stroke:rgb(0%,0%,0%);stroke-opacity:1;stroke-miterlimit:10;" d="M 77.917969 366.0625 L 163.945313 366.0625 "/>
<path style="fill:none;stroke-width:0.75;stroke-linecap:round;stroke-linejoin:round;stroke:rgb(0%,0%,0%);stroke-opacity:1;stroke-miterlimit:10;" d="M 163.945313 388.398438 L 184.183594 388.398438 "/>
<path style="fill:none;stroke-width:0.75;stroke-linecap:round;stroke-linejoin:round;stroke:rgb(0%,0%,0%);stroke-opacity:1;stroke-miterlimit:10;" d="M 184.183594 412.503906 L 187.875 412.503906 "/>
<path style="fill:none;stroke-width:0.75;stroke-linecap:round;stroke-linejoin:round;stroke:rgb(0%,0%,0%);stroke-opacity:1;stroke-miterlimit:10;" d="M 187.875 440.144531 L 339.855469 440.144531 "/>
<path style="fill:none;stroke-width:0.75;stroke-linecap:round;stroke-linejoin:round;stroke:rgb(0%,0%,0%);stroke-opacity:1;stroke-miterlimit:10;" d="M 339.855469 464.570313 L 357.515625 464.570313 "/>
<path style="fill:none;stroke-width:0.75;stroke-linecap:round;stroke-linejoin:round;stroke:rgb(0%,0%,0%);stroke-opacity:1;stroke-miterlimit:10;" d="M 357.515625 482.570313 L 370.6875 482.570313 "/>
<path style="fill:none;stroke-width:0.75;stroke-linecap:round;stroke-linejoin:round;stroke:rgb(0%,0%,0%);stroke-opacity:1;stroke-miterlimit:10;" d="M 370.6875 497.996094 L 408.808594 497.996094 "/>
<path style="fill:none;stroke-width:0.75;stroke-linecap:round;stroke-linejoin:round;stroke:rgb(0%,0%,0%);stroke-opacity:1;stroke-miterlimit:10;" d="M 408.808594 508.28125 L 496.945313 508.28125 "/>
<path style="fill:none;stroke-width:0.75;stroke-linecap:round;stroke-linejoin:round;stroke:rgb(0%,0%,0%);stroke-opacity:1;stroke-miterlimit:10;" d="M 408.808594 487.710938 L 496.945313 487.710938 "/>
<path style="fill:none;stroke-width:0.75;stroke-linecap:round;stroke-linejoin:round;stroke:rgb(0%,0%,0%);stroke-opacity:1;stroke-miterlimit:10;" d="M 370.6875 467.140625 L 496.945313 467.140625 "/>
<path style="fill:none;stroke-width:0.75;stroke-linecap:round;stroke-linejoin:round;stroke:rgb(0%,0%,0%);stroke-opacity:1;stroke-miterlimit:10;" d="M 357.515625 446.574219 L 496.945313 446.574219 "/>
<path style="fill:none;stroke-width:0.75;stroke-linecap:round;stroke-linejoin:round;stroke:rgb(0%,0%,0%);stroke-opacity:1;stroke-miterlimit:10;" d="M 339.855469 415.71875 L 381.03125 415.71875 "/>
<path style="fill:none;stroke-width:0.75;stroke-linecap:round;stroke-linejoin:round;stroke:rgb(0%,0%,0%);stroke-opacity:1;stroke-miterlimit:10;" d="M 381.03125 426.003906 L 496.945313 426.003906 "/>
<path style="fill:none;stroke-width:0.75;stroke-linecap:round;stroke-linejoin:round;stroke:rgb(0%,0%,0%);stroke-opacity:1;stroke-miterlimit:10;" d="M 381.03125 405.433594 L 496.945313 405.433594 "/>
<path style="fill:none;stroke-width:0.75;stroke-linecap:round;stroke-linejoin:round;stroke:rgb(0%,0%,0%);stroke-opacity:1;stroke-miterlimit:10;" d="M 187.875 384.863281 L 496.945313 384.863281 "/>
<path style="fill:none;stroke-width:0.75;stroke-linecap:round;stroke-linejoin:round;stroke:rgb(0%,0%,0%);stroke-opacity:1;stroke-miterlimit:10;" d="M 184.183594 364.292969 L 496.945313 364.292969 "/>
<path style="fill:none;stroke-width:0.75;stroke-linecap:round;stroke-linejoin:round;stroke:rgb(0%,0%,0%);stroke-opacity:1;stroke-miterlimit:10;" d="M 163.945313 343.722656 L 496.945313 343.722656 "/>
<path style="fill:none;stroke-width:0.75;stroke-linecap:round;stroke-linejoin:round;stroke:rgb(0%,0%,0%);stroke-opacity:1;stroke-miterlimit:10;" d="M 77.917969 157.472656 L 95.132813 157.472656 "/>
<path style="fill:none;stroke-width:0.75;stroke-linecap:round;stroke-linejoin:round;stroke:rgb(0%,0%,0%);stroke-opacity:1;stroke-miterlimit:10;" d="M 95.132813 238.625 L 135.480469 238.625 "/>
<path style="fill:none;stroke-width:0.75;stroke-linecap:round;stroke-linejoin:round;stroke:rgb(0%,0%,0%);stroke-opacity:1;stroke-miterlimit:10;" d="M 135.480469 323.15625 L 496.945313 323.15625 "/>
<path style="fill:none;stroke-width:0.75;stroke-linecap:round;stroke-linejoin:round;stroke:rgb(0%,0%,0%);stroke-opacity:1;stroke-miterlimit:10;" d="M 135.480469 154.097656 L 149.632813 154.097656 "/>
<path style="fill:none;stroke-width:0.75;stroke-linecap:round;stroke-linejoin:round;stroke:rgb(0%,0%,0%);stroke-opacity:1;stroke-miterlimit:10;" d="M 149.632813 185.59375 L 264.152344 185.59375 "/>
<path style="fill:none;stroke-width:0.75;stroke-linecap:round;stroke-linejoin:round;stroke:rgb(0%,0%,0%);stroke-opacity:1;stroke-miterlimit:10;" d="M 264.152344 212.59375 L 287.515625 212.59375 "/>
<path style="fill:none;stroke-width:0.75;stroke-linecap:round;stroke-linejoin:round;stroke:rgb(0%,0%,0%);stroke-opacity:1;stroke-miterlimit:10;" d="M 287.515625 246.019531 L 357.222656 246.019531 "/>
<path style="fill:none;stroke-width:0.75;stroke-linecap:round;stroke-linejoin:round;stroke:rgb(0%,0%,0%);stroke-opacity:1;stroke-miterlimit:10;" d="M 357.222656 276.871094 L 397.957031 276.871094 "/>
<path style="fill:none;stroke-width:0.75;stroke-linecap:round;stroke-linejoin:round;stroke:rgb(0%,0%,0%);stroke-opacity:1;stroke-miterlimit:10;" d="M 397.957031 292.300781 L 457.289063 292.300781 "/>
<path style="fill:none;stroke-width:0.75;stroke-linecap:round;stroke-linejoin:round;stroke:rgb(0%,0%,0%);stroke-opacity:1;stroke-miterlimit:10;" d="M 457.289063 302.585938 L 496.945313 302.585938 "/>
<path style="fill:none;stroke-width:0.75;stroke-linecap:round;stroke-linejoin:round;stroke:rgb(0%,0%,0%);stroke-opacity:1;stroke-miterlimit:10;" d="M 457.289063 282.015625 L 496.945313 282.015625 "/>
<path style="fill:none;stroke-width:0.75;stroke-linecap:round;stroke-linejoin:round;stroke:rgb(0%,0%,0%);stroke-opacity:1;stroke-miterlimit:10;" d="M 397.957031 261.445313 L 496.945313 261.445313 "/>
<path style="fill:none;stroke-width:0.75;stroke-linecap:round;stroke-linejoin:round;stroke:rgb(0%,0%,0%);stroke-opacity:1;stroke-miterlimit:10;" d="M 357.222656 215.164063 L 389.125 215.164063 "/>
<path style="fill:none;stroke-width:0.75;stroke-linecap:round;stroke-linejoin:round;stroke:rgb(0%,0%,0%);stroke-opacity:1;stroke-miterlimit:10;" d="M 389.125 230.589844 L 460.617188 230.589844 "/>
<path style="fill:none;stroke-width:0.75;stroke-linecap:round;stroke-linejoin:round;stroke:rgb(0%,0%,0%);stroke-opacity:1;stroke-miterlimit:10;" d="M 460.617188 240.875 L 496.945313 240.875 "/>
<path style="fill:none;stroke-width:0.75;stroke-linecap:round;stroke-linejoin:round;stroke:rgb(0%,0%,0%);stroke-opacity:1;stroke-miterlimit:10;" d="M 460.617188 220.304688 L 496.945313 220.304688 "/>
<path style="fill:none;stroke-width:0.75;stroke-linecap:round;stroke-linejoin:round;stroke:rgb(0%,0%,0%);stroke-opacity:1;stroke-miterlimit:10;" d="M 389.125 199.738281 L 496.945313 199.738281 "/>
<path style="fill:none;stroke-width:0.75;stroke-linecap:round;stroke-linejoin:round;stroke:rgb(0%,0%,0%);stroke-opacity:1;stroke-miterlimit:10;" d="M 287.515625 179.167969 L 496.945313 179.167969 "/>
<path style="fill:none;stroke-width:0.75;stroke-linecap:round;stroke-linejoin:round;stroke:rgb(0%,0%,0%);stroke-opacity:1;stroke-miterlimit:10;" d="M 264.152344 158.597656 L 496.945313 158.597656 "/>
<path style="fill:none;stroke-width:0.75;stroke-linecap:round;stroke-linejoin:round;stroke:rgb(0%,0%,0%);stroke-opacity:1;stroke-miterlimit:10;" d="M 149.632813 122.601563 L 181.878906 122.601563 "/>
<path style="fill:none;stroke-width:0.75;stroke-linecap:round;stroke-linejoin:round;stroke:rgb(0%,0%,0%);stroke-opacity:1;stroke-miterlimit:10;" d="M 181.878906 138.027344 L 496.945313 138.027344 "/>
<path style="fill:none;stroke-width:0.75;stroke-linecap:round;stroke-linejoin:round;stroke:rgb(0%,0%,0%);stroke-opacity:1;stroke-miterlimit:10;" d="M 181.878906 107.171875 L 215.210938 107.171875 "/>
<path style="fill:none;stroke-width:0.75;stroke-linecap:round;stroke-linejoin:round;stroke:rgb(0%,0%,0%);stroke-opacity:1;stroke-miterlimit:10;" d="M 215.210938 117.457031 L 496.945313 117.457031 "/>
<path style="fill:none;stroke-width:0.75;stroke-linecap:round;stroke-linejoin:round;stroke:rgb(0%,0%,0%);stroke-opacity:1;stroke-miterlimit:10;" d="M 215.210938 96.886719 L 496.945313 96.886719 "/>
<path style="fill:none;stroke-width:0.75;stroke-linecap:round;stroke-linejoin:round;stroke:rgb(0%,0%,0%);stroke-opacity:1;stroke-miterlimit:10;" d="M 95.132813 76.320313 L 496.945313 76.320313 "/>
<path style="fill:none;stroke-width:0.75;stroke-linecap:round;stroke-linejoin:round;stroke:rgb(0%,0%,0%);stroke-opacity:1;stroke-miterlimit:10;" d="M 77.917969 366.0625 L 77.917969 157.472656 "/>
<path style="fill:none;stroke-width:0.75;stroke-linecap:round;stroke-linejoin:round;stroke:rgb(0%,0%,0%);stroke-opacity:1;stroke-miterlimit:10;" d="M 163.945313 388.398438 L 163.945313 343.722656 "/>
<path style="fill:none;stroke-width:0.75;stroke-linecap:round;stroke-linejoin:round;stroke:rgb(0%,0%,0%);stroke-opacity:1;stroke-miterlimit:10;" d="M 184.183594 412.503906 L 184.183594 364.292969 "/>
<path style="fill:none;stroke-width:0.75;stroke-linecap:round;stroke-linejoin:round;stroke:rgb(0%,0%,0%);stroke-opacity:1;stroke-miterlimit:10;" d="M 187.875 440.144531 L 187.875 384.863281 "/>
<path style="fill:none;stroke-width:0.75;stroke-linecap:round;stroke-linejoin:round;stroke:rgb(0%,0%,0%);stroke-opacity:1;stroke-miterlimit:10;" d="M 339.855469 464.570313 L 339.855469 415.71875 "/>
<path style="fill:none;stroke-width:0.75;stroke-linecap:round;stroke-linejoin:round;stroke:rgb(0%,0%,0%);stroke-opacity:1;stroke-miterlimit:10;" d="M 357.515625 482.570313 L 357.515625 446.574219 "/>
<path style="fill:none;stroke-width:0.75;stroke-linecap:round;stroke-linejoin:round;stroke:rgb(0%,0%,0%);stroke-opacity:1;stroke-miterlimit:10;" d="M 370.6875 497.996094 L 370.6875 467.140625 "/>
<path style="fill:none;stroke-width:0.75;stroke-linecap:round;stroke-linejoin:round;stroke:rgb(0%,0%,0%);stroke-opacity:1;stroke-miterlimit:10;" d="M 408.808594 508.28125 L 408.808594 487.710938 "/>
<path style="fill:none;stroke-width:0.75;stroke-linecap:round;stroke-linejoin:round;stroke:rgb(0%,0%,0%);stroke-opacity:1;stroke-miterlimit:10;" d="M 381.03125 426.003906 L 381.03125 405.433594 "/>
<path style="fill:none;stroke-width:0.75;stroke-linecap:round;stroke-linejoin:round;stroke:rgb(0%,0%,0%);stroke-opacity:1;stroke-miterlimit:10;" d="M 95.132813 238.625 L 95.132813 76.320313 "/>
<path style="fill:none;stroke-width:0.75;stroke-linecap:round;stroke-linejoin:round;stroke:rgb(0%,0%,0%);stroke-opacity:1;stroke-miterlimit:10;" d="M 135.480469 323.15625 L 135.480469 154.097656 "/>
<path style="fill:none;stroke-width:0.75;stroke-linecap:round;stroke-linejoin:round;stroke:rgb(0%,0%,0%);stroke-opacity:1;stroke-miterlimit:10;" d="M 149.632813 185.59375 L 149.632813 122.601563 "/>
<path style="fill:none;stroke-width:0.75;stroke-linecap:round;stroke-linejoin:round;stroke:rgb(0%,0%,0%);stroke-opacity:1;stroke-miterlimit:10;" d="M 264.152344 212.59375 L 264.152344 158.597656 "/>
<path style="fill:none;stroke-width:0.75;stroke-linecap:round;stroke-linejoin:round;stroke:rgb(0%,0%,0%);stroke-opacity:1;stroke-miterlimit:10;" d="M 287.515625 246.019531 L 287.515625 179.167969 "/>
<path style="fill:none;stroke-width:0.75;stroke-linecap:round;stroke-linejoin:round;stroke:rgb(0%,0%,0%);stroke-opacity:1;stroke-miterlimit:10;" d="M 357.222656 276.871094 L 357.222656 215.164063 "/>
<path style="fill:none;stroke-width:0.75;stroke-linecap:round;stroke-linejoin:round;stroke:rgb(0%,0%,0%);stroke-opacity:1;stroke-miterlimit:10;" d="M 397.957031 292.300781 L 397.957031 261.445313 "/>
<path style="fill:none;stroke-width:0.75;stroke-linecap:round;stroke-linejoin:round;stroke:rgb(0%,0%,0%);stroke-opacity:1;stroke-miterlimit:10;" d="M 457.289063 302.585938 L 457.289063 282.015625 "/>
<path style="fill:none;stroke-width:0.75;stroke-linecap:round;stroke-linejoin:round;stroke:rgb(0%,0%,0%);stroke-opacity:1;stroke-miterlimit:10;" d="M 389.125 230.589844 L 389.125 199.738281 "/>
<path style="fill:none;stroke-width:0.75;stroke-linecap:round;stroke-linejoin:round;stroke:rgb(0%,0%,0%);stroke-opacity:1;stroke-miterlimit:10;" d="M 460.617188 240.875 L 460.617188 220.304688 "/>
<path style="fill:none;stroke-width:0.75;stroke-linecap:round;stroke-linejoin:round;stroke:rgb(0%,0%,0%);stroke-opacity:1;stroke-miterlimit:10;" d="M 181.878906 138.027344 L 181.878906 107.171875 "/>
<path style="fill:none;stroke-width:0.75;stroke-linecap:round;stroke-linejoin:round;stroke:rgb(0%,0%,0%);stroke-opacity:1;stroke-miterlimit:10;" d="M 215.210938 117.457031 L 215.210938 96.886719 "/>
<g style="fill:rgb(0%,0%,0%);fill-opacity:1;">
  <use xlink:href="#glyph0-1" x="496.945313" y="512.523438"/>
  <use xlink:href="#glyph0-2" x="504.949219" y="512.523438"/>
</g>
<g style="fill:rgb(0%,0%,0%);fill-opacity:1;">
  <use xlink:href="#glyph0-1" x="496.945313" y="492.007813"/>
  <use xlink:href="#glyph0-3" x="504.949219" y="492.007813"/>
</g>
<g style="fill:rgb(0%,0%,0%);fill-opacity:1;">
  <use xlink:href="#glyph0-4" x="496.945313" y="471.4375"/>
  <use xlink:href="#glyph0-5" x="505.611328" y="471.4375"/>
  <use xlink:href="#glyph0-6" x="512.285156" y="471.4375"/>
</g>
<g style="fill:rgb(0%,0%,0%);fill-opacity:1;">
  <use xlink:href="#glyph0-7" x="496.945313" y="449.621094"/>
  <use xlink:href="#glyph0-8" x="504.275391" y="449.621094"/>
</g>
<g style="fill:rgb(0%,0%,0%);fill-opacity:1;">
  <use xlink:href="#glyph0-9" x="496.945313" y="430.226563"/>
  <use xlink:href="#glyph0-10" x="504.949219" y="430.226563"/>
</g>
<g style="fill:rgb(0%,0%,0%);fill-opacity:1;">
  <use xlink:href="#glyph0-11" x="496.945313" y="409.726563"/>
  <use xlink:href="#glyph0-12" x="506.941406" y="409.726563"/>
</g>
<g style="fill:rgb(0%,0%,0%);fill-opacity:1;">
  <use xlink:href="#glyph0-13" x="496.945313" y="389.160156"/>
  <use xlink:href="#glyph0-14" x="504.949219" y="389.160156"/>
</g>
<g style="fill:rgb(0%,0%,0%);fill-opacity:1;">
  <use xlink:href="#glyph0-15" x="496.945313" y="368.589844"/>
  <use xlink:href="#glyph0-16" x="503.619141" y="368.589844"/>
</g>
<g style="fill:rgb(0%,0%,0%);fill-opacity:1;">
  <use xlink:href="#glyph0-17" x="496.945313" y="347.949219"/>
  <use xlink:href="#glyph0-6" x="505.611328" y="347.949219"/>
</g>
<g style="fill:rgb(0%,0%,0%);fill-opacity:1;">
  <use xlink:href="#glyph0-13" x="496.945313" y="327.449219"/>
  <use xlink:href="#glyph0-18" x="504.949219" y="327.449219"/>
</g>
<g style="fill:rgb(0%,0%,0%);fill-opacity:1;">
  <use xlink:href="#glyph0-13" x="496.945313" y="306.878906"/>
  <use xlink:href="#glyph0-19" x="504.949219" y="306.878906"/>
</g>
<g style="fill:rgb(0%,0%,0%);fill-opacity:1;">
  <use xlink:href="#glyph0-20" x="496.945313" y="286.308594"/>
  <use xlink:href="#glyph0-5" x="504.949219" y="286.308594"/>
  <use xlink:href="#glyph0-16" x="511.623047" y="286.308594"/>
</g>
<g style="fill:rgb(0%,0%,0%);fill-opacity:1;">
  <use xlink:href="#glyph0-21" x="496.945313" y="265.742188"/>
  <use xlink:href="#glyph0-18" x="505.611328" y="265.742188"/>
</g>
<g style="fill:rgb(0%,0%,0%);fill-opacity:1;">
  <use xlink:href="#glyph0-13" x="496.945313" y="245.171875"/>
  <use xlink:href="#glyph0-16" x="504.949219" y="245.171875"/>
</g>
<g style="fill:rgb(0%,0%,0%);fill-opacity:1;">
  <use xlink:href="#glyph0-13" x="496.945313" y="224.53125"/>
  <use xlink:href="#glyph0-22" x="504.949219" y="224.53125"/>
</g>
<g style="fill:rgb(0%,0%,0%);fill-opacity:1;">
  <use xlink:href="#glyph0-17" x="496.945313" y="203.980469"/>
  <use xlink:href="#glyph0-2" x="505.611328" y="203.980469"/>
</g>
<g style="fill:rgb(0%,0%,0%);fill-opacity:1;">
  <use xlink:href="#glyph0-20" x="496.945313" y="183.460938"/>
  <use xlink:href="#glyph0-18" x="504.949219" y="183.460938"/>
</g>
<g style="fill:rgb(0%,0%,0%);fill-opacity:1;">
  <use xlink:href="#glyph0-23" x="496.945313" y="162.839844"/>
  <use xlink:href="#glyph0-2" x="500.279297" y="162.839844"/>
</g>
<g style="fill:rgb(0%,0%,0%);fill-opacity:1;">
  <use xlink:href="#glyph0-4" x="496.945313" y="142.324219"/>
  <use xlink:href="#glyph0-22" x="505.611328" y="142.324219"/>
</g>
<g style="fill:rgb(0%,0%,0%);fill-opacity:1;">
  <use xlink:href="#glyph0-15" x="496.945313" y="121.753906"/>
  <use xlink:href="#glyph0-12" x="503.619141" y="121.753906"/>
</g>
<g style="fill:rgb(0%,0%,0%);fill-opacity:1;">
  <use xlink:href="#glyph0-23" x="496.945313" y="101.113281"/>
  <use xlink:href="#glyph0-5" x="500.279297" y="101.113281"/>
</g>
<g style="fill:rgb(0%,0%,0%);fill-opacity:1;">
  <use xlink:href="#glyph0-9" x="496.945313" y="80.542969"/>
  <use xlink:href="#glyph0-6" x="504.949219" y="80.542969"/>
</g>
</g>
</svg>
